<svg width="800" height="800" xmlns="http://www.w3.org/2000/svg">
  <defs>
    <linearGradient id="vacuum1" x1="0%" y1="0%" x2="0%" y2="100%">
      <stop offset="0%" style="stop-color:#06b6d4;stop-opacity:1" />
      <stop offset="100%" style="stop-color:#0891b2;stop-opacity:1" />
    </linearGradient>
    <linearGradient id="vacuum2" x1="0%" y1="0%" x2="100%" y2="0%">
      <stop offset="0%" style="stop-color:#a5f3fc;stop-opacity:0.6" />
      <stop offset="100%" style="stop-color:#67e8f9;stop-opacity:0.4" />
    </linearGradient>
  </defs>
  <rect width="800" height="800" fill="#ecfeff"/>
  <circle cx="400" cy="400" r="250" fill="#fff" opacity="0.5"/>
  <g transform="translate(400, 400)">
    <rect x="-140" y="-120" width="280" height="240" rx="8" fill="url(#vacuum1)" opacity="0.15"/>
    <rect x="-130" y="-110" width="260" height="220" rx="6" fill="url(#vacuum2)"/>
    <line x1="-130" y1="-110" x2="130" y2="-110" stroke="#0891b2" stroke-width="4"/>
    <line x1="-130" y1="110" x2="130" y2="110" stroke="#0891b2" stroke-width="4"/>
    <path d="M-100,-80 L100,-80 M-100,-50 L100,-50 M-100,-20 L100,-20 M-100,10 L100,10 M-100,40 L100,40 M-100,70 L100,70" stroke="#0891b2" stroke-width="1" opacity="0.5"/>
    <text x="0" y="-140" text-anchor="middle" font-family="Arial, sans-serif" font-size="26" fill="#0891b2" font-weight="bold">VACUUM POUCH</text>
    <text x="0" y="160" text-anchor="middle" font-family="Arial, sans-serif" font-size="20" fill="#164e63">真空袋</text>
  </g>
  <text x="400" y="750" text-anchor="middle" font-family="Arial, sans-serif" font-size="24" fill="#164e63" font-weight="bold">真空保鲜包装袋</text>
</svg>
