<svg width="600" height="400" xmlns="http://www.w3.org/2000/svg">
  <defs>
    <linearGradient id="bannerGrad" x1="0%" y1="0%" x2="100%" y2="100%">
      <stop offset="0%" style="stop-color:#3b82f6;stop-opacity:1" />
      <stop offset="50%" style="stop-color:#8b5cf6;stop-opacity:1" />
      <stop offset="100%" style="stop-color:#ec4899;stop-opacity:1" />
    </linearGradient>
    <linearGradient id="bannerWave" x1="0%" y1="0%" x2="0%" y2="100%">
      <stop offset="0%" style="stop-color:#fff;stop-opacity:0.3" />
      <stop offset="100%" style="stop-color:#fff;stop-opacity:0.1" />
    </linearGradient>
  </defs>
  <rect width="600" height="400" fill="url(#bannerGrad)"/>
  <circle cx="100" cy="100" r="80" fill="#fff" opacity="0.1"/>
  <circle cx="500" cy="300" r="100" fill="#fff" opacity="0.1"/>
  <circle cx="550" cy="80" r="40" fill="#fff" opacity="0.15"/>
  <path d="M0,250 C150,280 300,220 450,260 C525,280 570,300 600,310 L600,400 L0,400 Z" fill="url(#bannerWave)"/>
  <path d="M0,280 C150,310 300,250 450,290 C525,310 570,330 600,340 L600,400 L0,400 Z" fill="#fff" opacity="0.08"/>
  <g transform="translate(300, 180)">
    <text x="0" y="-40" text-anchor="middle" font-family="Arial, sans-serif" font-size="32" fill="#fff" font-weight="bold">PLASTIC PACKAGING</text>
    <text x="0" y="10" text-anchor="middle" font-family="Arial, sans-serif" font-size="42" fill="#fff" font-weight="bold">专业塑料包装解决方案</text>
    <text x="0" y="50" text-anchor="middle" font-family="Arial, sans-serif" font-size="18" fill="#fff" opacity="0.9">Professional Plastic Packaging Solutions</text>
    <rect x="-100" y="70" width="200" height="45" rx="22" fill="#fff" opacity="0.2"/>
    <text x="0" y="100" text-anchor="middle" font-family="Arial, sans-serif" font-size="16" fill="#fff" font-weight="bold">品质保证 · 定制服务 · 快速交付</text>
  </g>
  <rect x="20" y="20" width="120" height="40" rx="8" fill="#fff" opacity="0.2"/>
  <text x="80" y="47" text-anchor="middle" font-family="Arial, sans-serif" font-size="16" fill="#fff" font-weight="bold">塑袋包装</text>
</svg>
